<svg width="156" height="155" viewBox="0 0 156 155" fill="none" xmlns="http://www.w3.org/2000/svg">
<path d="M101.746 2.79199C104.067 2.25785 106.496 2.45984 108.696 3.37109C110.896 4.28236 112.757 5.85736 114.021 7.87598L114.021 7.87793L124.97 25.333V25.334C126.288 27.4367 128.065 29.2137 130.168 30.5322L130.17 30.5332L147.636 41.4717V41.4707C149.65 42.7348 151.221 44.5953 152.13 46.793C152.982 48.8538 153.213 51.1157 152.8 53.3008L152.709 53.7373L148.1 73.8154C147.577 76.089 147.545 78.4464 148.002 80.7305L148.1 81.1855L152.697 101.252L152.698 101.256C153.233 103.576 153.032 106.005 152.122 108.205C151.213 110.405 149.64 112.266 147.624 113.53L130.16 124.468C128.053 125.785 126.275 127.562 124.958 129.669L114.021 147.125H114.021C112.758 149.142 110.898 150.716 108.7 151.627C106.502 152.538 104.075 152.742 101.756 152.21L81.6787 147.601C79.4053 147.078 77.0485 147.045 74.7646 147.502L74.3086 147.601L54.2432 152.21C49.4883 153.3 44.5601 151.256 41.9785 147.127L41.9775 147.125L31.04 129.669L31.0361 129.661L30.7822 129.271C29.4878 127.342 27.8046 125.704 25.8291 124.469H25.8301L8.375 113.531L8.37402 113.53C6.35742 112.268 4.78421 110.408 3.87305 108.21C2.96198 106.012 2.7581 103.584 3.29004 101.265L7.89941 81.1855V81.1846C8.45463 78.7639 8.45469 76.2488 7.89941 73.8281L3.29004 53.7383C2.76042 51.4207 2.96525 48.9958 3.87598 46.7998C4.78697 44.6034 6.3591 42.7447 8.37402 41.4824H8.375L25.8301 30.5439L25.8369 30.54C27.9359 29.2149 29.7119 27.4403 31.0293 25.333L41.9658 7.87695L41.9668 7.87598C43.2301 5.85728 45.092 4.28236 47.292 3.37109C49.4918 2.46005 51.9209 2.25793 54.2412 2.79199H54.2432L74.3086 7.40137C76.7336 7.95877 79.2537 7.95877 81.6787 7.40137L101.745 2.79199H101.746ZM109.739 42.9922C107.939 41.9266 105.795 41.6003 103.76 42.083C101.724 42.5658 99.9545 43.8194 98.8242 45.5801L98.7998 45.6191L98.7754 45.6592L71.1943 92.3428L55.8506 77.6484H55.8496C55.1053 76.9007 54.2225 76.3048 53.249 75.8965C52.2485 75.4768 51.1738 75.2628 50.0889 75.2676C49.0039 75.2723 47.9305 75.4954 46.9336 75.9238C45.9369 76.3522 45.0362 76.977 44.2861 77.7607C43.5361 78.5446 42.9516 79.4717 42.5674 80.4863C42.1832 81.501 42.007 82.5829 42.0498 83.667C42.0927 84.7511 42.3543 85.8157 42.8174 86.7969C43.2677 87.7509 43.9016 88.6058 44.6807 89.3164V89.3174L67.3799 111.07L67.3818 111.072C68.2616 111.914 69.3204 112.545 70.4785 112.92C71.6366 113.295 72.8645 113.403 74.0703 113.236C75.2761 113.07 76.429 112.634 77.4424 111.96C78.3291 111.37 79.0887 110.611 79.6797 109.729L79.9229 109.343L96.3008 81.6133L112.679 53.8828L112.701 53.8447L112.723 53.8057C113.722 51.9677 113.969 49.8136 113.413 47.7969C112.857 45.78 111.54 44.0579 109.739 42.9922Z" stroke="#0A0A0A" stroke-width="5"/>
</svg>
